<?xml version="1.0" encoding="UTF-8"?>
<svg width="200px" height="200px" viewBox="0 0 200 200" version="1.1" xmlns="http://www.w3.org/2000/svg" xmlns:xlink="http://www.w3.org/1999/xlink">
    <!-- Generator: Sketch 50.2 (55047) - http://www.bohemiancoding.com/sketch -->
    <title>logo</title>
    <desc>Created with Sketch.</desc>
    <defs></defs>
    <g id="logo" stroke="none" stroke-width="1" fill="none" fill-rule="evenodd">
        <g id="Logo" transform="translate(20.000000, 20.000000)" fill="#522BFF">
            <path d="M81.4145324,32.414566 L116.281454,53.3347189 L79.9178175,75.1529007 L43.5541811,53.3347189 L78.4211025,32.414566 C79.3423604,31.8618113 80.4932745,31.8618113 81.4145324,32.414566 Z" id="Mask"></path>
            <path d="M123.554181,58.4235496 L155.760276,77.7472066 C157.137964,78.5738194 157.584699,80.3607583 156.758086,81.7384464 C156.512414,82.1478998 156.169729,82.4905843 155.760276,82.7362563 L123.554181,102.059913 L87.1905447,80.2417315 L123.554181,58.4235496 Z" id="Mask"></path>
            <path d="M36.5280014,58.4235496 L116.528001,106.42355 L81.66108,127.343703 C80.7398222,127.896457 79.588908,127.896457 78.6676502,127.343703 L4.32190654,82.7362563 C2.94421849,81.9096435 2.49748376,80.1227046 3.32409659,78.7450165 C3.56976862,78.3355631 3.91245314,77.9928786 4.32190654,77.7472066 L36.5280014,58.4235496 Z" id="Mask"></path>
        </g>
    </g>
</svg>