<?xml version="1.0" encoding="UTF-8"?>
<svg width="48px" height="48px" viewBox="0 0 48 48" version="1.1" xmlns="http://www.w3.org/2000/svg" xmlns:xlink="http://www.w3.org/1999/xlink">
    <!-- Generator: Sketch 50.2 (55047) - http://www.bohemiancoding.com/sketch -->
    <title>logo_inverted_squared</title>
    <desc>Created with Sketch.</desc>
    <defs></defs>
    <g id="logo_inverted_squared" stroke="none" stroke-width="1" fill="none" fill-rule="evenodd">
        <rect id="Rectangle" fill="#522BFF" x="0" y="0" width="48" height="48" rx="14"></rect>
        <g id="Logo-White" transform="translate(6.000000, 6.000000)" fill="#FFFFFF">
            <path d="M18.3367609,7.29327736 L26.1818182,12.0003118 L18,16.9094027 L9.81818182,12.0003118 L17.6632391,7.29327736 C17.8705222,7.16890755 18.1294778,7.16890755 18.3367609,7.29327736 Z" id="Mask"></path>
            <path d="M27.8181818,13.0909091 L35.0645532,17.4387319 C35.374533,17.6247198 35.4750483,18.026781 35.2890604,18.3367609 C35.2337842,18.4288879 35.1566802,18.5059919 35.0645532,18.5612681 L27.8181818,22.9090909 L19.6363636,18 L27.8181818,13.0909091 Z" id="Mask"></path>
            <path d="M8.21880032,13.0909091 L26.2188003,23.8909091 L18.373743,28.5979435 C18.16646,28.7223133 17.9075043,28.7223133 17.7002213,28.5979435 L0.972428971,18.5612681 C0.662449161,18.3752802 0.561933846,17.973219 0.747921732,17.6632391 C0.803197941,17.5711121 0.880301958,17.4940081 0.972428971,17.4387319 L8.21880032,13.0909091 Z" id="Mask"></path>
        </g>
    </g>
</svg>