<?xml version="1.0" encoding="UTF-8"?>
<svg width="200px" height="200px" viewBox="0 0 200 200" version="1.1" xmlns="http://www.w3.org/2000/svg" xmlns:xlink="http://www.w3.org/1999/xlink">
    <!-- Generator: Sketch 50.2 (55047) - http://www.bohemiancoding.com/sketch -->
    <title>logo_black</title>
    <desc>Created with Sketch.</desc>
    <defs></defs>
    <g id="logo_black" stroke="none" stroke-width="1" fill="none" fill-rule="evenodd">
        <g id="Logo-Black" transform="translate(20.000000, 20.000000)" fill="#000000">
            <path d="M81.4967149,32.414566 L116.363636,53.3347189 L80,75.1529007 L43.6363636,53.3347189 L78.5032851,32.414566 C79.4245429,31.8618113 80.5754571,31.8618113 81.4967149,32.414566 Z" id="Mask"></path>
            <path d="M123.636364,58.1818182 L155.842459,77.5054751 C157.220147,78.332088 157.666881,80.1190269 156.840268,81.4967149 C156.594596,81.9061683 156.251912,82.2488528 155.842459,82.4945249 L123.636364,101.818182 L87.2727273,80 L123.636364,58.1818182 Z" id="Mask"></path>
            <path d="M36.5280014,58.1818182 L116.528001,106.181818 L81.66108,127.101971 C80.7398222,127.654726 79.588908,127.654726 78.6676502,127.101971 L4.32190654,82.4945249 C2.94421849,81.667912 2.49748376,79.8809731 3.32409659,78.5032851 C3.56976862,78.0938317 3.91245314,77.7511472 4.32190654,77.5054751 L36.5280014,58.1818182 Z" id="Mask"></path>
        </g>
    </g>
</svg>